<svg xmlns="http://www.w3.org/2000/svg" viewBox="0 0 79 79" shape-rendering="crispEdges"><path fill="#ffffff" d="M0 0h79v79H0z"/><path stroke="#0f1117" d="M1 1.5h7m1 0h1m4 0h2m1 0h1m2 0h6m2 0h2m2 0h1m3 0h1m3 0h1m1 0h1m3 0h1m2 0h2m4 0h4m4 0h3m5 0h7M1 2.5h1m5 0h1m10 0h1m2 0h2m2 0h1m1 0h2m2 0h2m1 0h3m3 0h2m1 0h1m2 0h2m1 0h2m2 0h1m1 0h1m1 0h2m2 0h1m1 0h1m1 0h3m1 0h1m1 0h1m5 0h1M1 3.5h1m1 0h3m1 0h1m1 0h8m1 0h1m2 0h2m1 0h1m4 0h1m1 0h1m1 0h1m1 0h2m2 0h1m3 0h4m3 0h1m1 0h1m1 0h1m3 0h3m1 0h1m1 0h3m2 0h1m1 0h1m1 0h3m1 0h1M1 4.5h1m1 0h3m1 0h1m2 0h4m2 0h1m1 0h2m1 0h7m1 0h1m2 0h1m2 0h1m3 0h1m7 0h1m2 0h3m2 0h2m1 0h1m3 0h3m1 0h1m2 0h1m1 0h1m1 0h3m1 0h1M1 5.5h1m1 0h3m1 0h1m3 0h1m1 0h4m1 0h3m1 0h2m1 0h5m4 0h1m1 0h1m2 0h2m4 0h9m1 0h1m4 0h1m1 0h3m1 0h4m1 0h1m1 0h3m1 0h1M1 6.5h1m5 0h1m1 0h1m1 0h2m1 0h3m5 0h4m3 0h1m2 0h1m1 0h1m1 0h1m1 0h1m1 0h1m1 0h3m2 0h1m3 0h1m2 0h2m2 0h1m3 0h1m2 0h1m1 0h1m3 0h1m5 0h1M1 7.5h7m1 0h1m1 0h1m1 0h1m1 0h1m1 0h1m1 0h1m1 0h1m1 0h1m1 0h1m1 0h1m1 0h1m1 0h1m1 0h1m1 0h1m1 0h1m1 0h1m1 0h1m1 0h1m1 0h1m1 0h1m1 0h1m1 0h1m1 0h1m1 0h1m1 0h1m1 0h1m1 0h1m1 0h1m1 0h1m1 0h1m1 0h1m1 0h7M10 8.5h2m2 0h2m2 0h1m2 0h2m1 0h2m3 0h2m1 0h1m1 0h5m1 0h3m4 0h1m3 0h1m1 0h1m1 0h1m5 0h1m1 0h1m3 0h1m1 0h1M1 9.5h1m1 0h1m3 0h2m3 0h1m1 0h1m1 0h1m2 0h3m3 0h6m1 0h1m1 0h1m1 0h1m1 0h1m3 0h1m2 0h1m1 0h6m4 0h2m1 0h2m2 0h4m4 0h1m2 0h1m1 0h1M2 10.5h4m2 0h2m2 0h1m1 0h1m2 0h1m1 0h1m2 0h1m1 0h2m1 0h3m3 0h3m1 0h3m1 0h1m1 0h1m2 0h1m1 0h1m1 0h1m1 0h3m1 0h2m2 0h3m1 0h3m1 0h1m3 0h1m1 0h1m1 0h2M3 11.5h1m1 0h10m2 0h4m1 0h1m1 0h1m2 0h1m3 0h1m1 0h3m1 0h3m1 0h1m1 0h1m1 0h1m6 0h2m2 0h10m1 0h1m2 0h1m2 0h2M1 12.5h1m6 0h1m5 0h1m1 0h2m3 0h1m1 0h3m2 0h1m5 0h1m1 0h1m1 0h1m1 0h1m1 0h1m2 0h1m1 0h2m4 0h1m5 0h1m1 0h1m1 0h1m5 0h2m2 0h1m1 0h1m1 0h1M3 13.5h2m2 0h3m2 0h4m8 0h2m1 0h1m4 0h3m1 0h3m1 0h2m2 0h2m1 0h2m1 0h1m1 0h1m4 0h3m1 0h1m3 0h1m5 0h2m4 0h1M1 14.5h1m1 0h1m2 0h1m1 0h2m2 0h1m2 0h1m3 0h1m2 0h4m7 0h2m1 0h2m6 0h3m1 0h2m2 0h2m1 0h4m1 0h2m1 0h1m4 0h1m1 0h3m3 0h1M2 15.5h1m2 0h1m1 0h2m2 0h3m3 0h1m3 0h2m1 0h3m1 0h1m1 0h1m1 0h2m1 0h1m1 0h1m1 0h1m1 0h3m1 0h2m2 0h2m1 0h1m1 0h4m1 0h2m1 0h2m1 0h2m3 0h2m2 0h1m1 0h1M1 16.5h1m1 0h4m3 0h5m5 0h3m1 0h1m1 0h1m2 0h6m3 0h1m2 0h2m4 0h1m1 0h1m3 0h1m2 0h1m4 0h1m2 0h2m1 0h1m1 0h1m4 0h2m1 0h1M1 17.5h5m1 0h2m1 0h4m2 0h3m4 0h1m4 0h1m1 0h1m1 0h4m2 0h1m5 0h1m1 0h1m1 0h1m2 0h4m1 0h1m2 0h2m4 0h1m5 0h1m5 0h1M1 18.5h4m3 0h4m1 0h3m1 0h5m2 0h5m1 0h3m2 0h1m1 0h1m3 0h2m1 0h2m4 0h1m2 0h1m1 0h1m1 0h1m1 0h1m1 0h2m2 0h1m2 0h1m3 0h1m3 0h2M2 19.5h8m1 0h1m4 0h1m3 0h1m1 0h3m2 0h2m1 0h2m1 0h1m1 0h1m1 0h1m1 0h3m3 0h1m1 0h3m2 0h1m1 0h1m1 0h7m1 0h1m1 0h1m6 0h2m1 0h2M4 20.5h1m3 0h1m2 0h1m1 0h2m1 0h1m2 0h1m4 0h6m2 0h1m4 0h2m1 0h1m3 0h1m2 0h3m3 0h1m3 0h1m1 0h3m1 0h1m3 0h1m1 0h1m2 0h1m1 0h4M3 21.5h1m1 0h3m1 0h1m1 0h2m2 0h1m1 0h1m3 0h1m1 0h4m3 0h1m1 0h1m1 0h1m1 0h3m1 0h1m1 0h1m1 0h6m3 0h1m1 0h1m1 0h1m2 0h1m2 0h2m4 0h3m3 0h1m1 0h1M1 22.5h6m1 0h1m1 0h1m1 0h1m2 0h2m1 0h1m1 0h1m1 0h1m1 0h1m1 0h1m1 0h1m1 0h2m4 0h3m2 0h6m1 0h1m2 0h2m1 0h2m1 0h1m2 0h3m1 0h2m1 0h1m1 0h4m1 0h1m1 0h1M1 23.5h1m3 0h6m1 0h2m1 0h3m1 0h2m1 0h1m1 0h1m1 0h3m1 0h1m2 0h3m1 0h1m1 0h1m1 0h2m1 0h2m1 0h1m1 0h1m1 0h2m2 0h2m1 0h1m1 0h1m1 0h1m1 0h1m1 0h1m4 0h3m2 0h1M3 24.5h1m2 0h1m1 0h1m5 0h1m1 0h1m1 0h5m4 0h2m1 0h1m1 0h1m1 0h1m3 0h1m3 0h1m1 0h2m7 0h1m2 0h1m2 0h1m1 0h1m1 0h1m1 0h1m4 0h2m1 0h3M2 25.5h1m1 0h6m3 0h4m1 0h3m2 0h8m1 0h3m2 0h2m1 0h2m5 0h8m3 0h1m2 0h1m2 0h3m2 0h5m3 0h1M1 26.5h2m2 0h1m3 0h1m3 0h1m3 0h4m2 0h1m1 0h1m3 0h1m1 0h2m2 0h1m1 0h3m2 0h1m2 0h1m1 0h1m3 0h4m1 0h1m2 0h3m2 0h3m1 0h2m3 0h1M2 27.5h4m1 0h1m1 0h1m1 0h1m2 0h1m2 0h5m1 0h3m1 0h1m1 0h1m1 0h3m1 0h1m1 0h3m1 0h7m1 0h1m1 0h2m1 0h1m1 0h2m1 0h2m1 0h1m1 0h1m3 0h2m1 0h1m1 0h1M4 28.5h2m3 0h5m4 0h1m1 0h1m1 0h1m1 0h2m3 0h2m1 0h1m1 0h1m3 0h1m2 0h2m1 0h1m1 0h2m3 0h2m8 0h1m1 0h1m1 0h1m3 0h1m3 0h1m1 0h1m1 0h1M1 29.5h2m1 0h6m2 0h2m5 0h2m3 0h7m5 0h1m1 0h5m1 0h2m1 0h6m3 0h1m4 0h3m1 0h9m3 0h1M3 30.5h2m3 0h1m1 0h2m1 0h3m1 0h1m2 0h1m1 0h1m3 0h2m1 0h2m2 0h1m3 0h1m2 0h4m1 0h3m1 0h1m1 0h2m3 0h2m1 0h1m2 0h1m1 0h1m1 0h1m1 0h1m3 0h3m2 0h1M1 31.5h1m5 0h1m1 0h1m2 0h1m1 0h7m2 0h7m3 0h1m3 0h2m2 0h2m2 0h1m1 0h2m1 0h5m1 0h1m1 0h1m1 0h1m1 0h1m1 0h3m3 0h2m1 0h1M1 32.5h1m1 0h1m1 0h1m3 0h2m1 0h1m2 0h1m2 0h1m3 0h1m3 0h1m1 0h2m4 0h1m1 0h1m1 0h1m6 0h1m1 0h2m1 0h1m1 0h2m1 0h1m1 0h1m1 0h1m1 0h1m1 0h2m2 0h2m1 0h3m1 0h1m2 0h1M1 33.5h1m2 0h2m1 0h1m4 0h2m2 0h3m1 0h1m6 0h1m1 0h2m1 0h3m1 0h2m2 0h5m1 0h1m1 0h3m2 0h1m2 0h2m3 0h1m3 0h1m2 0h1m2 0h2m2 0h1m1 0h1M3 34.5h1m1 0h2m1 0h1m2 0h1m3 0h5m1 0h2m1 0h2m1 0h2m1 0h5m1 0h1m3 0h7m3 0h1m2 0h1m1 0h4m2 0h2m4 0h4m2 0h1m3 0h1M1 35.5h1m1 0h7m1 0h1m1 0h2m1 0h3m4 0h1m1 0h1m2 0h3m2 0h1m1 0h4m2 0h1m1 0h3m1 0h1m4 0h1m1 0h1m1 0h1m3 0h1m3 0h2m1 0h2m1 0h1m2 0h2m2 0h1M3 36.5h1m2 0h1m2 0h2m1 0h1m3 0h1m2 0h1m1 0h2m3 0h1m2 0h1m3 0h2m2 0h1m3 0h2m3 0h1m2 0h1m1 0h1m1 0h1m5 0h1m1 0h1m2 0h2m4 0h4m2 0h1M1 37.5h1m2 0h6m2 0h1m4 0h1m3 0h2m2 0h3m3 0h2m1 0h1m1 0h1m1 0h1m2 0h1m2 0h5m1 0h1m2 0h1m3 0h2m1 0h3m2 0h1m2 0h1m3 0h1m1 0h4M1 38.5h1m4 0h1m1 0h8m1 0h2m4 0h3m1 0h2m3 0h3m3 0h4m3 0h1m1 0h1m1 0h4m1 0h1m2 0h1m1 0h1m1 0h1m1 0h2m1 0h1m1 0h1m1 0h1m1 0h3M3 39.5h1m1 0h5m2 0h9m2 0h3m1 0h1m1 0h1m1 0h3m1 0h3m3 0h2m1 0h4m2 0h1m1 0h2m2 0h2m1 0h4m1 0h2m3 0h1m2 0h3m1 0h1M2 40.5h1m3 0h1m3 0h5m1 0h2m2 0h1m1 0h1m3 0h1m1 0h5m1 0h1m1 0h2m4 0h1m1 0h2m1 0h1m1 0h1m6 0h1m7 0h1m4 0h1m4 0h3M1 41.5h1m4 0h5m1 0h3m1 0h1m3 0h2m2 0h3m2 0h2m1 0h1m1 0h1m1 0h2m1 0h5m1 0h1m4 0h3m1 0h3m3 0h1m1 0h3m3 0h1m1 0h2m1 0h1m3 0h1M3 42.5h2m5 0h2m1 0h8m1 0h2m5 0h1m3 0h3m1 0h1m8 0h2m1 0h6m1 0h3m2 0h2m1 0h3m1 0h1m1 0h1m1 0h1m1 0h1m1 0h1M2 43.5h6m2 0h1m2 0h1m1 0h1m2 0h1m1 0h3m1 0h1m1 0h3m4 0h1m1 0h1m1 0h1m1 0h3m1 0h1m1 0h3m2 0h1m1 0h1m2 0h2m3 0h2m1 0h4m2 0h1m2 0h3m2 0h1M3 44.5h1m1 0h2m3 0h2m1 0h1m1 0h3m1 0h1m4 0h6m1 0h1m2 0h1m1 0h1m1 0h1m2 0h2m2 0h4m2 0h3m5 0h3m3 0h1m1 0h4m2 0h3m1 0h1M4 45.5h2m1 0h3m3 0h5m1 0h3m1 0h1m1 0h2m3 0h1m5 0h3m5 0h1m1 0h1m2 0h3m1 0h2m2 0h2m1 0h1m3 0h1m3 0h6m3 0h1M3 46.5h1m2 0h1m1 0h4m2 0h1m2 0h2m4 0h1m7 0h1m1 0h2m2 0h3m1 0h1m2 0h2m1 0h1m1 0h1m2 0h1m1 0h1m1 0h2m1 0h1m1 0h2m2 0h1m8 0h1m2 0h1M1 47.5h2m2 0h5m1 0h1m1 0h1m3 0h3m1 0h1m1 0h1m1 0h5m1 0h1m1 0h3m1 0h2m2 0h13m2 0h2m1 0h3m2 0h1m1 0h2m1 0h6M2 48.5h4m3 0h2m1 0h2m1 0h1m1 0h1m2 0h1m2 0h1m1 0h1m3 0h1m1 0h1m5 0h2m1 0h3m2 0h3m3 0h1m4 0h1m2 0h1m1 0h1m1 0h1m3 0h3m3 0h3m1 0h1M1 49.5h1m2 0h2m1 0h1m1 0h4m2 0h1m2 0h4m2 0h2m1 0h1m1 0h1m1 0h1m1 0h1m1 0h1m2 0h1m3 0h1m1 0h2m1 0h1m1 0h1m1 0h1m1 0h1m4 0h1m1 0h1m4 0h1m3 0h1m1 0h1m1 0h1m1 0h1m1 0h1M3 50.5h3m3 0h1m1 0h1m1 0h1m1 0h3m3 0h1m1 0h1m1 0h1m3 0h3m1 0h1m3 0h1m1 0h1m1 0h1m2 0h1m2 0h1m3 0h3m2 0h1m1 0h1m1 0h2m1 0h1m1 0h2m1 0h2m3 0h2m1 0h2M1 51.5h2m2 0h5m4 0h1m1 0h4m1 0h1m1 0h1m1 0h6m2 0h1m1 0h1m1 0h1m1 0h1m1 0h1m1 0h1m1 0h9m1 0h2m1 0h3m1 0h1m1 0h1m1 0h9m1 0h2M1 52.5h1m2 0h1m3 0h4m1 0h1m3 0h1m1 0h3m1 0h3m1 0h1m1 0h1m2 0h3m1 0h1m1 0h1m1 0h1m1 0h1m1 0h1m2 0h1m2 0h1m2 0h1m1 0h2m2 0h3m5 0h2m2 0h2m1 0h1m2 0h1M4 53.5h8m1 0h1m2 0h1m1 0h1m1 0h1m2 0h1m3 0h1m1 0h3m1 0h1m2 0h1m8 0h2m2 0h1m1 0h2m3 0h3m2 0h1m2 0h2m2 0h1m3 0h2m1 0h1m1 0h1M3 54.5h1m1 0h1m4 0h3m3 0h1m5 0h4m1 0h1m2 0h4m3 0h2m2 0h1m3 0h5m2 0h3m1 0h2m1 0h3m1 0h1m4 0h1m2 0h1m2 0h1M2 55.5h2m1 0h1m1 0h1m4 0h1m1 0h2m3 0h2m6 0h2m2 0h2m1 0h1m2 0h7m1 0h1m1 0h3m1 0h4m1 0h1m1 0h1m1 0h2m1 0h4m1 0h2m1 0h1m2 0h1m2 0h1M2 56.5h1m1 0h1m3 0h1m3 0h3m2 0h1m1 0h4m2 0h2m3 0h1m3 0h1m3 0h1m1 0h3m1 0h1m1 0h2m2 0h2m5 0h1m1 0h3m2 0h1m3 0h2m1 0h2m3 0h2M3 57.5h5m8 0h1m3 0h2m1 0h1m2 0h2m3 0h3m1 0h3m3 0h1m3 0h4m2 0h2m1 0h1m1 0h1m2 0h1m1 0h1m1 0h1m4 0h1m3 0h2m1 0h1m1 0h1M2 58.5h1m2 0h1m3 0h1m3 0h1m2 0h1m2 0h1m2 0h1m2 0h1m2 0h3m2 0h1m2 0h2m2 0h3m2 0h5m3 0h3m1 0h2m1 0h1m2 0h2m1 0h1m4 0h2m1 0h1m1 0h1M2 59.5h1m1 0h1m2 0h1m2 0h4m2 0h2m1 0h1m3 0h2m3 0h2m2 0h2m1 0h1m1 0h3m1 0h1m3 0h4m3 0h1m1 0h4m2 0h1m2 0h2m1 0h1m2 0h1m1 0h2m1 0h4M1 60.5h2m5 0h1m5 0h1m2 0h2m6 0h1m1 0h4m1 0h7m3 0h1m1 0h1m1 0h1m1 0h1m6 0h2m3 0h2m4 0h1m1 0h2m1 0h2m3 0h2M3 61.5h1m1 0h3m1 0h1m2 0h1m1 0h2m1 0h2m5 0h1m2 0h1m1 0h4m1 0h2m2 0h1m4 0h1m2 0h3m1 0h1m5 0h1m4 0h1m3 0h2m1 0h2m5 0h1m1 0h1M1 62.5h1m2 0h1m3 0h5m1 0h1m3 0h2m1 0h2m1 0h1m1 0h4m1 0h3m3 0h2m2 0h1m1 0h1m1 0h1m1 0h3m1 0h4m2 0h2m1 0h2m1 0h3m1 0h1m1 0h1m1 0h4m1 0h1M1 63.5h2m1 0h1m2 0h2m1 0h1m2 0h1m1 0h1m2 0h1m1 0h1m6 0h3m1 0h4m2 0h3m1 0h3m1 0h4m2 0h7m2 0h1m2 0h4m2 0h1m1 0h2m2 0h3M3 64.5h2m1 0h1m1 0h2m1 0h1m1 0h1m2 0h2m2 0h2m1 0h7m1 0h1m2 0h1m1 0h1m1 0h1m2 0h2m1 0h2m2 0h4m5 0h1m3 0h1m1 0h1m1 0h1m2 0h2m1 0h1m2 0h1M1 65.5h7m2 0h3m1 0h2m2 0h1m1 0h1m6 0h1m1 0h1m1 0h1m2 0h1m2 0h2m3 0h1m3 0h1m1 0h1m2 0h1m1 0h1m1 0h1m1 0h2m1 0h2m2 0h1m2 0h3m2 0h1m4 0h1M4 66.5h3m4 0h1m1 0h2m3 0h2m3 0h1m1 0h1m1 0h5m1 0h2m2 0h1m1 0h1m1 0h2m2 0h1m1 0h1m1 0h1m2 0h4m1 0h2m1 0h10m2 0h2m2 0h2M2 67.5h1m2 0h3m1 0h2m1 0h1m2 0h2m1 0h4m1 0h4m2 0h3m3 0h1m1 0h1m1 0h1m1 0h5m1 0h3m1 0h3m1 0h2m1 0h1m1 0h1m1 0h4m1 0h1m1 0h1m1 0h2M5 68.5h1m2 0h2m3 0h1m2 0h3m3 0h1m1 0h4m1 0h1m1 0h2m1 0h1m1 0h3m1 0h1m3 0h4m3 0h2m4 0h1m3 0h1m2 0h2m2 0h2m1 0h2m2 0h1m1 0h1M2 69.5h4m1 0h2m2 0h1m1 0h3m2 0h3m1 0h1m1 0h7m2 0h2m1 0h4m1 0h2m3 0h6m4 0h1m4 0h3m1 0h9m3 0h1M9 70.5h1m1 0h2m5 0h1m4 0h1m1 0h1m3 0h1m1 0h1m1 0h3m1 0h3m1 0h3m1 0h1m1 0h1m3 0h2m2 0h3m1 0h4m1 0h3m2 0h1m3 0h2m1 0h1M1 71.5h7m1 0h2m1 0h1m1 0h2m1 0h1m1 0h3m1 0h3m1 0h1m1 0h2m2 0h1m3 0h3m1 0h1m1 0h3m1 0h1m1 0h1m1 0h2m2 0h4m1 0h1m2 0h2m2 0h1m1 0h1m1 0h1m1 0h1m2 0h2M1 72.5h1m5 0h1m2 0h2m1 0h4m2 0h1m3 0h1m1 0h1m3 0h1m1 0h4m9 0h2m1 0h1m3 0h1m1 0h1m2 0h2m3 0h1m3 0h1m3 0h1m3 0h2m2 0h1M1 73.5h1m1 0h3m1 0h1m5 0h1m1 0h1m1 0h2m5 0h8m2 0h1m3 0h1m1 0h5m2 0h7m2 0h1m3 0h2m1 0h1m1 0h1m3 0h7m1 0h1M1 74.5h1m1 0h3m1 0h1m2 0h2m1 0h2m2 0h3m2 0h3m1 0h1m2 0h1m3 0h2m2 0h5m1 0h1m4 0h1m4 0h1m1 0h4m2 0h1m12 0h1M1 75.5h1m1 0h3m1 0h1m1 0h2m1 0h1m3 0h1m1 0h9m1 0h3m1 0h4m2 0h1m2 0h2m2 0h2m3 0h3m1 0h1m1 0h1m3 0h5m1 0h1m1 0h2m1 0h1m2 0h4M1 76.5h1m5 0h1m2 0h2m1 0h3m1 0h4m2 0h1m1 0h2m1 0h2m4 0h1m1 0h1m3 0h3m2 0h2m2 0h1m2 0h1m3 0h1m2 0h1m1 0h1m2 0h1m2 0h3m1 0h1m1 0h2m2 0h1M1 77.5h7m1 0h1m2 0h1m1 0h1m4 0h3m8 0h2m2 0h1m3 0h2m2 0h1m3 0h1m1 0h1m2 0h2m3 0h1m1 0h1m2 0h2m1 0h1m5 0h1m2 0h1m1 0h3"/><rect x="28.89" y="28.89" width="21.21" height="21.21" rx="4.18" fill="#ffffff"/><g transform="translate(30.00,30.00) scale(0.5938)"><rect x="2" y="2" width="28" height="28" rx="7" fill="#0f1117" stroke="#262c3a" stroke-width="1.5"/><rect x="9" y="13" width="3" height="10" rx="1.5" fill="#e8eaf0"/><circle cx="10.5" cy="9.4" r="1.9" fill="#22d3ee"/><circle cx="20" cy="16" r="5.4" fill="none" stroke="#e8eaf0" stroke-width="2.8"/><path d="M20.6 19.8 L24.4 23.8" stroke="#22d3ee" stroke-width="2.8" stroke-linecap="round"/></g></svg>
